<?xml version="1.0" encoding="utf-8"?>
<!-- Generator: Adobe Illustrator 24.3.0, SVG Export Plug-In . SVG Version: 6.00 Build 0)  -->
<svg version="1.1" id="Layer_1" xmlns="http://www.w3.org/2000/svg" xmlns:xlink="http://www.w3.org/1999/xlink" x="0px" y="0px"
	 viewBox="0 0 100 100" style="enable-background:new 0 0 100 100;" xml:space="preserve">
<style type="text/css">
	.st0{fill:#E5E5E5;}
</style>
<path class="st0" d="M67.95,50.27v16.09c0,0.73-0.59,1.32-1.32,1.32H57.3c-0.73,0-1.32-0.59-1.32-1.32v-9.33
	c0-0.73-0.59-1.32-1.32-1.32h-9.33c-0.73,0-1.32,0.59-1.32,1.32v9.33c0,0.73-0.59,1.32-1.32,1.32h-9.33c-0.73,0-1.32-0.59-1.32-1.32
	V50.27c0-0.35,0.14-0.68,0.39-0.93l11.58-11.58l5.05-5.05c0.51-0.51,1.35-0.51,1.86,0l16.64,16.64
	C67.82,49.59,67.95,49.92,67.95,50.27z"/>
</svg>
