<?xml version="1.0" encoding="utf-8"?>
<!-- Generator: Adobe Illustrator 24.3.0, SVG Export Plug-In . SVG Version: 6.00 Build 0)  -->
<svg version="1.1" id="Layer_1" xmlns="http://www.w3.org/2000/svg" xmlns:xlink="http://www.w3.org/1999/xlink" x="0px" y="0px"
	 viewBox="0 0 6723.57 6723.57" style="enable-background:new 0 0 6723.57 6723.57;" xml:space="preserve">
<style type="text/css">
	.st0{fill:#FFFFFF;}
</style>
<g>
	<g>
		<g>
			<path class="st0" d="M1407.18,3361.79c0,89.2-19.26,174.83-53.52,251.9c-237.62-59.94-499.52,2.86-685.05,188.39
				c-43.53,42.81-79.92,89.91-109.18,140.58c-232.63-90.63-398.18-316.84-398.18-580.87s165.55-490.24,398.18-580.87
				c29.26,50.67,65.65,97.76,109.18,140.58c139.87,139.87,324.69,210.51,508.79,210.51c59.23,0,118.45-7.85,176.26-22.12
				C1387.91,3186.96,1407.18,3271.88,1407.18,3361.79z"/>
			<path class="st0" d="M1407.18,4704.06c0,60.65,7.14,119.88,21.41,176.26c-228.35,100.62-505.22,57.8-691.47-129.16
				c-186.97-186.25-229.78-463.12-129.16-691.47c56.38,14.27,114.89,21.41,176.26,21.41c261.89,0,492.38-140.58,617.97-351.09
				c78.5,30.68,152,77.07,215.51,140.58c63.51,63.51,109.89,137.01,139.87,216.22C1547.76,4212.39,1407.18,4442.17,1407.18,4704.06z
				"/>
			<path class="st0" d="M1757.55,2636.77c-29.97,79.21-76.36,152.71-139.87,216.22c-63.51,63.51-137.01,109.89-215.51,140.58
				c-125.59-210.51-356.08-351.09-617.97-351.09c-61.37,0-119.88,7.13-176.26,21.41c-100.62-228.35-57.8-505.22,129.16-691.47
				c121.31-121.31,280.44-182.68,440.29-182.68c85.63,0,171.26,17.84,251.18,53.52c-14.27,56.38-21.41,114.89-21.41,176.26
				C1407.18,2281.4,1547.76,2511.18,1757.55,2636.77z"/>
			<path class="st0" d="M2707.35,4928.84c-90.63,232.63-316.84,398.19-580.87,398.19s-490.24-165.55-580.87-398.19
				c50.67-29.26,97.76-65.65,140.58-109.18c185.53-184.82,248.33-447.43,188.39-685.05c77.07-34.25,162.7-53.52,251.9-53.52
				s174.83,19.27,251.9,53.52c-59.94,237.63,2.85,500.23,188.39,685.05C2609.59,4863.19,2656.68,4899.59,2707.35,4928.84z"/>
			<path class="st0" d="M2566.77,1903.91c-185.53,184.82-248.33,447.42-188.39,685.05c-77.07,34.25-162.7,53.52-251.9,53.52
				s-174.83-19.27-251.9-53.52c59.94-237.63-2.85-500.23-188.39-685.05c-42.82-43.53-90.63-79.92-140.58-109.18
				c90.63-232.63,316.84-398.19,580.87-398.19s490.24,165.55,580.87,398.19C2657.4,1823.99,2609.59,1860.38,2566.77,1903.91z"/>
			<path class="st0" d="M3515.85,4751.16c-186.25,186.96-463.12,229.78-691.47,129.16c14.27-56.37,21.41-115.6,21.41-176.26
				c0-261.89-140.58-491.67-350.38-617.26c29.97-79.21,76.36-152.71,139.87-216.22c63.51-63.51,137.01-109.9,215.51-140.58
				c125.59,210.51,356.08,351.09,617.97,351.09c61.37,0,119.88-7.13,176.26-21.41C3745.63,4288.04,3702.82,4564.91,3515.85,4751.16z
				"/>
			<path class="st0" d="M3645.01,2663.89c-56.38-14.27-114.89-21.41-176.26-21.41c-261.89,0-492.38,140.58-617.97,351.09
				c-78.5-30.68-152-77.07-215.51-140.58c-63.51-63.51-109.89-137.01-139.87-216.22c209.8-125.59,350.38-355.37,350.38-617.26
				c0-61.37-7.14-119.88-21.41-176.26c79.92-35.68,165.55-53.52,251.18-53.52c159.84,0,318.98,61.37,440.29,182.68
				C3702.82,2158.67,3745.63,2435.54,3645.01,2663.89z"/>
			<path class="st0" d="M4091.72,3361.79c0,264.03-165.55,490.24-398.18,580.87c-29.26-50.67-65.65-97.77-109.18-140.58
				c-185.53-185.53-447.43-248.33-685.05-188.39c-34.26-77.07-53.52-162.7-53.52-251.9c0-89.91,19.26-174.83,53.52-251.9
				c57.8,14.27,117.03,22.12,176.26,22.12c184.11,0,368.93-70.65,508.79-210.51c43.53-42.81,79.92-89.91,109.18-140.58
				C3926.17,2871.55,4091.72,3097.76,4091.72,3361.79z"/>
		</g>
	</g>
	<g>
		<g>
			<path class="st0" d="M6285.14,3164.9v838.86c0,79.35,10.56,130.68,31.67,153.79c21.11,22.93,63.7,34.58,127.95,34.58
				c17.11,0,49.32-1.64,96.46-4.55c10.01-0.91,17.11-1.64,21.11-1.64v256.08c-65.34,8.01-124.86,14.2-178.55,18.2
				c-53.69,4-98.1,6.01-133.23,6.01c-134.5,0-233.51-32.58-296.67-97.92c-63.34-65.34-95.01-168.17-95.01-308.86V3164.9h-487.96
				v1286.23h-427.71V3158.71h-220.04v-255.9h220.04v-259.18c0-183.64,33.85-304.13,101.56-361.46
				c67.89-57.15,201.12-85.91,399.87-85.91c29.12,0,60.24,0.73,93.37,2.37c33.31,1.46,68.8,3.64,107.02,6.73v305.77
				c-8.01-1.09-17.11-1.82-27.12-2.18c-10.01-0.55-24.57-0.91-43.68-0.91c-78.26,0-131.77,15.11-160.35,45.32
				c-28.76,30.03-42.95,90.82-42.95,182.19v167.26h487.96v-262.09l426.26-188.19v450.28h277.19v262.09H6285.14z"/>
		</g>
	</g>
</g>
</svg>
